<?xml version="1.0" standalone="no"?>
<!DOCTYPE svg PUBLIC "-//W3C//DTD SVG 20010904//EN"
 "http://www.w3.org/TR/2001/REC-SVG-20010904/DTD/svg10.dtd">
<svg version="1.0" xmlns="http://www.w3.org/2000/svg"
 width="400.000000pt" height="400.000000pt" viewBox="0 0 400.000000 400.000000"
 preserveAspectRatio="xMidYMid meet">
<metadata>
Created by potrace 1.14, written by Peter Selinger 2001-2017
</metadata>
<g transform="translate(0.000000,400.000000) scale(0.100000,-0.100000)"
fill="#000000" stroke="none">
<path d="M1780 3984 c-164 -20 -317 -59 -508 -129 -47 -17 -222 -101 -262
-126 -79 -49 -166 -105 -175 -111 -466 -347 -754 -834 -822 -1389 -9 -77 -9
-394 1 -464 41 -301 131 -558 283 -803 35 -57 68 -109 73 -115 5 -7 35 -43 66
-82 263 -329 625 -570 1024 -683 131 -37 168 -45 325 -67 90 -13 434 -13 505
0 19 3 73 13 120 21 47 9 96 18 110 20 60 11 304 100 400 147 399 192 726 512
925 902 52 102 108 236 101 242 -2 2 -25 -10 -51 -26 -55 -35 -150 -68 -221
-79 -74 -11 -290 -6 -374 8 -170 28 -414 111 -588 200 -213 109 -352 160 -447
165 -160 8 -265 -58 -317 -197 l-21 -58 -56 0 c-62 -1 -524 -1 -585 0 l-39 0
7 128 c8 146 9 158 38 307 87 457 350 762 698 809 115 16 225 13 390 -10 124
-17 332 -93 560 -203 299 -143 352 -161 478 -158 93 3 145 22 189 69 27 29 69
112 78 155 l7 33 154 0 154 0 -6 28 c-4 15 -24 76 -46 136 -252 715 -879 1220
-1653 1331 -86 12 -413 12 -515 -1z"/>
</g>
</svg>
